<!DOCTYPE svg PUBLIC "-//W3C//DTD SVG 1.1//EN" "http://www.w3.org/Graphics/SVG/1.1/DTD/svg11.dtd">
<!-- Uploaded to: SVG Repo, www.svgrepo.com, Transformed by: SVG Repo Mixer Tools -->
<svg version="1.1" id="Layer_1" xmlns="http://www.w3.org/2000/svg" xmlns:xlink="http://www.w3.org/1999/xlink" viewBox="0 0 512.004 512.004" xml:space="preserve" width="800px" height="800px" fill="#000000">
<g id="SVGRepo_bgCarrier" stroke-width="0"/>
<g id="SVGRepo_tracerCarrier" stroke-linecap="round" stroke-linejoin="round"/>
<g id="SVGRepo_iconCarrier"> <rect x="254.084" y="101.931" transform="matrix(-0.7071 0.7071 -0.7071 -0.7071 701.1646 54.8223)" style="fill:#5b93e1;" width="170.288" height="141.392"/> <rect x="150.198" y="243.354" transform="matrix(-0.7071 0.7071 -0.7071 -0.7071 559.7436 396.2459)" style="fill:#5b93e1;" width="95.217" height="141.392"/> <rect x="36.045" y="357.497" transform="matrix(-0.7071 0.7071 -0.7071 -0.7071 445.584 671.8181)" style="fill:#5b93e1;" width="95.217" height="141.392"/> <polygon style="fill:#2b7ae9;" points="243.073,168.998 341.865,172.87 343.183,269.107 391.302,220.989 390.726,117.584 295.979,116.438 "/> <rect x="187.703" y="0.157" style="fill:#9ec6ff;" width="324.012" height="141.393"/> <polygon style="fill:#5b93e1;" points="512.004,245.365 512.004,324.456 370.615,324.456 370.615,0.355 512.004,0.355 512.004,167.109 "/> <polyline style="fill:#8cb7f2;" points="370.59,141.497 343.722,141.473 343.595,0.157 370.64,0.182 370.765,141.498 "/> </g>
</svg>