<!DOCTYPE svg PUBLIC "-//W3C//DTD SVG 1.1//EN" "http://www.w3.org/Graphics/SVG/1.1/DTD/svg11.dtd">
<!-- Uploaded to: SVG Repo, www.svgrepo.com, Transformed by: SVG Repo Mixer Tools -->
<svg xmlns="http://www.w3.org/2000/svg" width="800px" height="800px" viewBox="-2.4 -2.4 28.80 28.80" fill="none" stroke=" #eb5f99" stroke-width="2" stroke-linecap="round" stroke-linejoin="round">
<g id="SVGRepo_bgCarrier" stroke-width="0">
<path transform="translate(-2.4, -2.4), scale(0.8999999999999999)" d="M16,24.767148022000725C17.744495024754965,24.133925591987374,19.398198476527643,23.653657437137717,21.17756010175378,23.126300116206792C24.220393053093094,22.224482177397018,28.629468475235708,23.39155022241733,30.111106778947367,20.584976528125683C31.506273183525543,17.94220108121703,28.276819824448534,15.086577078490492,26.790569574415027,12.493931411701029C25.61930281648109,10.45074946132389,24.170852879064064,8.739145909036962,22.41845463911421,7.165755077358876C20.445629487152715,5.3944539336822155,18.646230475924128,2.6412675664762766,16,2.8056180763401493C13.344410887200628,2.970549826861657,11.812189550194478,5.862438621382744,10.135784532862042,7.928599853283895C8.860504398578938,9.500376569546804,8.494121132650426,11.468671285317443,7.528024114464436,13.247288168779276C6.244119203906619,15.610999998638235,3.629679404050338,17.35466824333906,3.5552759642939513,20.043535953383955C3.4708983754842975,23.092859677456058,4.261443014499683,27.148843359407536,7.113401251388007,28.231353852071297C10.16036331860781,29.38788144979399,12.93650581842706,25.879145019676233,16,24.767148022000725" fill="#7ed0ec" strokewidth="0"/>
</g>
<g id="SVGRepo_tracerCarrier" stroke-linecap="round" stroke-linejoin="round"/>
<g id="SVGRepo_iconCarrier"> <path d="M2 4l3 12h14l3-12-6 7-4-7-4 7-6-7zm3 16h14"/> </g>
</svg>